<svg width="30" height="30" viewBox="0 0 30 30" fill="none" xmlns="http://www.w3.org/2000/svg">
<path d="M14.9987 9.22125C13.4658 9.22125 11.9956 9.83022 10.9117 10.9142C9.82771 11.9981 9.21875 13.4683 9.21875 15.0013C9.21875 16.5342 9.82771 18.0044 10.9117 19.0883C11.9956 20.1723 13.4658 20.7813 14.9987 20.7813C16.5317 20.7813 18.0019 20.1723 19.0858 19.0883C20.1698 18.0044 20.7787 16.5342 20.7787 15.0013C20.7787 13.4683 20.1698 11.9981 19.0858 10.9142C18.0019 9.83022 16.5317 9.22125 14.9987 9.22125ZM14.9987 18.755C14.0029 18.755 13.0478 18.3594 12.3436 17.6552C11.6394 16.951 11.2437 15.9959 11.2437 15C11.2437 14.0041 11.6394 13.049 12.3436 12.3448C13.0478 11.6406 14.0029 11.245 14.9987 11.245C15.9946 11.245 16.9497 11.6406 17.6539 12.3448C18.3581 13.049 18.7537 14.0041 18.7537 15C18.7537 15.9959 18.3581 16.951 17.6539 17.6552C16.9497 18.3594 15.9946 18.755 14.9987 18.755Z" fill="white"/>
<path d="M21.0075 10.3563C21.7517 10.3563 22.355 9.75296 22.355 9.00875C22.355 8.26455 21.7517 7.66125 21.0075 7.66125C20.2633 7.66125 19.66 8.26455 19.66 9.00875C19.66 9.75296 20.2633 10.3563 21.0075 10.3563Z" fill="white"/>
<path d="M25.6662 7.63876C25.3768 6.89148 24.9346 6.21286 24.3679 5.64633C23.8011 5.0798 23.1223 4.63784 22.3749 4.34876C21.5004 4.02045 20.5764 3.84293 19.6424 3.82376C18.4387 3.77126 18.0574 3.75626 15.0049 3.75626C11.9524 3.75626 11.5612 3.75626 10.3674 3.82376C9.43418 3.84195 8.51089 4.01951 7.63744 4.34876C6.88986 4.63751 6.2109 5.07934 5.64411 5.64592C5.07732 6.21249 4.63523 6.89129 4.34619 7.63876C4.01782 8.51327 3.84071 9.4373 3.82244 10.3713C3.76869 11.5738 3.75244 11.955 3.75244 15.0088C3.75244 18.0613 3.75244 18.45 3.82244 19.6463C3.84119 20.5813 4.01744 21.5038 4.34619 22.38C4.63604 23.1272 5.07856 23.8057 5.64549 24.3722C6.21241 24.9387 6.89127 25.3807 7.63869 25.67C8.51048 26.0115 9.43416 26.2017 10.3699 26.2325C11.5737 26.285 11.9549 26.3013 15.0074 26.3013C18.0599 26.3013 18.4512 26.3013 19.6449 26.2325C20.5788 26.2135 21.5027 26.0364 22.3774 25.7088C23.1246 25.419 23.8032 24.9767 24.3699 24.41C24.9366 23.8433 25.3789 23.1647 25.6687 22.4175C25.9974 21.5425 26.1737 20.62 26.1924 19.685C26.2462 18.4825 26.2624 18.1013 26.2624 15.0475C26.2624 11.9938 26.2624 11.6063 26.1924 10.41C26.1779 9.46285 25.9999 8.52532 25.6662 7.63876ZM24.1437 19.5538C24.1356 20.2741 24.0041 20.9878 23.7549 21.6638C23.5672 22.1498 23.2798 22.5913 22.9113 22.9596C22.5427 23.3279 22.1011 23.6151 21.6149 23.8025C20.9465 24.0506 20.2404 24.1821 19.5274 24.1913C18.3399 24.2463 18.0049 24.26 14.9599 24.26C11.9124 24.26 11.6012 24.26 10.3912 24.1913C9.6786 24.1825 8.97285 24.051 8.30494 23.8025C7.81705 23.6162 7.37369 23.3296 7.00355 22.9612C6.63341 22.5928 6.34474 22.1508 6.15619 21.6638C5.9105 20.9951 5.77908 20.2898 5.76744 19.5775C5.71369 18.39 5.70119 18.055 5.70119 15.01C5.70119 11.9638 5.70119 11.6525 5.76744 10.4413C5.77552 9.72128 5.90701 9.00803 6.15619 8.33251C6.53744 7.34626 7.31869 6.57001 8.30494 6.19251C8.97318 5.94518 9.67872 5.81371 10.3912 5.80376C11.5799 5.75001 11.9137 5.73501 14.9599 5.73501C18.0062 5.73501 18.3187 5.73501 19.5274 5.80376C20.2405 5.81233 20.9466 5.94385 21.6149 6.19251C22.1011 6.38035 22.5426 6.66776 22.9112 7.03629C23.2797 7.40483 23.5671 7.84635 23.7549 8.33251C24.0006 9.00119 24.1321 9.70646 24.1437 10.4188C24.1974 11.6075 24.2112 11.9413 24.2112 14.9875C24.2112 18.0325 24.2112 18.36 24.1574 19.555H24.1437V19.5538Z" fill="white"/>
</svg>
