<svg width="280" height="48" viewBox="0 0 280 48" fill="none" xmlns="http://www.w3.org/2000/svg">
<path d="M8.19259 35.5301C6.28444 35.5301 4.78419 34.9978 3.69185 33.9335C2.59951 32.8691 2.05333 31.3129 2.05333 29.2648V21.2211H4.12741V29.184C4.12741 30.7604 4.48 31.9124 5.18518 32.64C5.90419 33.3676 6.91359 33.7314 8.21333 33.7314C9.52692 33.7314 10.5363 33.3676 11.2415 32.64C11.9605 31.9124 12.32 30.7604 12.32 29.184V21.2211H14.3319V29.2648C14.3319 31.3129 13.7857 32.8691 12.6933 33.9335C11.6148 34.9978 10.1146 35.5301 8.19259 35.5301ZM18.584 35.3684V21.2211H20.6581V35.3684H18.584Z" fill="white"/>
<path d="M29.1978 21.7516H41.3933V26.3495H29.1978V21.7516ZM29.6333 35.3684H23.7533V10.6105H42.9541V15.2084H29.6333V35.3684ZM46.9347 35.3684V10.6105H57.9325C60.207 10.6105 62.167 10.976 63.8125 11.7069C65.458 12.4143 66.7284 13.44 67.6236 14.784C68.5189 16.128 68.9666 17.7314 68.9666 19.5941C68.9666 21.4333 68.5189 23.0248 67.6236 24.3688C66.7284 25.6893 65.458 26.7032 63.8125 27.4105C62.167 28.1179 60.207 28.4716 57.9325 28.4716H50.2014L52.8147 25.9604V35.3684H46.9347ZM63.0866 35.3684L56.7347 26.3848H63.014L69.4384 35.3684H63.0866ZM52.8147 26.597L50.2014 23.909H57.6059C59.4207 23.909 60.7758 23.5318 61.671 22.7773C62.5663 21.9992 63.014 20.9381 63.014 19.5941C63.014 18.2265 62.5663 17.1655 61.671 16.4109C60.7758 15.6564 59.4207 15.2792 57.6059 15.2792H50.2014L52.8147 12.5558V26.597Z" fill="white"/>
<path d="M101.111 22.7368C101.111 27.9062 95.7701 32.8421 88.1482 32.8421C80.5262 32.8421 75.1852 27.9062 75.1852 22.7368C75.1852 17.5676 80.5262 12.6316 88.1482 12.6316C95.7701 12.6316 101.111 17.5676 101.111 22.7368Z" stroke="#B9B9B9" stroke-width="3"/>
<path d="M114.074 22.7368C114.074 27.9062 108.733 32.8421 101.111 32.8421C93.4891 32.8421 88.1481 27.9062 88.1481 22.7368C88.1481 17.5676 93.4891 12.6316 101.111 12.6316C108.733 12.6316 114.074 17.5676 114.074 22.7368Z" stroke="white" stroke-width="3"/>
<path d="M119.679 35.3684V10.6105H124.543L139.533 28.4362H137.174V10.6105H142.981V35.3684H138.154L123.127 17.5427H125.487V35.3684H119.679ZM154.256 35.3684V15.2792H146.125V10.6105H168.266V15.2792H160.136V35.3684H154.256Z" fill="white"/>
<path d="M161.161 40.4211V15.6632H173.574C176.768 15.6632 179.164 16.2526 180.761 17.4316C182.382 18.6105 183.193 20.1668 183.193 22.1002C183.193 23.397 182.866 24.5288 182.213 25.4956C181.559 26.4387 180.664 27.1698 179.527 27.6884C178.389 28.2071 177.083 28.4665 175.607 28.4665L176.296 27.0164C177.893 27.0164 179.309 27.2759 180.543 27.7945C181.777 28.2897 182.733 29.0324 183.41 30.0227C184.112 31.0131 184.463 32.2275 184.463 33.6657C184.463 35.7878 183.604 37.4501 181.886 38.6526C180.168 39.8317 177.639 40.4211 174.3 40.4211H161.161ZM167.004 36.1061H173.864C175.389 36.1061 176.538 35.8704 177.313 35.3987C178.111 34.9036 178.51 34.1255 178.51 33.0644C178.51 32.0269 178.111 31.2606 177.313 30.7655C176.538 30.2468 175.389 29.9874 173.864 29.9874H166.569V25.8139H172.848C174.276 25.8139 175.365 25.5782 176.115 25.1065C176.889 24.6114 177.276 23.8686 177.276 22.8783C177.276 21.9116 176.889 21.1924 176.115 20.7208C175.365 20.2257 174.276 19.9781 172.848 19.9781H167.004V36.1061Z" fill="white"/>
<path d="M215.185 27.7895C215.185 32.9588 209.844 37.8947 202.222 37.8947C194.6 37.8947 189.259 32.9588 189.259 27.7895C189.259 22.6202 194.6 17.6842 202.222 17.6842C209.844 17.6842 215.185 22.6202 215.185 27.7895Z" stroke="#B9B9B9" stroke-width="3"/>
<path d="M228.148 27.7895C228.148 32.9588 222.807 37.8947 215.185 37.8947C207.563 37.8947 202.222 32.9588 202.222 27.7895C202.222 22.6202 207.563 17.6842 215.185 17.6842C222.807 17.6842 228.148 22.6202 228.148 27.7895Z" stroke="url(#paint0_linear_2_19)" stroke-width="3"/>
<path d="M244.694 40.8455C242.661 40.8455 240.714 40.586 238.85 40.0674C236.987 39.525 235.487 38.8295 234.35 37.9806L236.346 33.6657C237.435 34.4203 238.717 35.0451 240.193 35.5402C241.694 36.0119 243.206 36.2476 244.73 36.2476C245.892 36.2476 246.823 36.1415 247.525 35.9293C248.251 35.6936 248.783 35.3752 249.122 34.9743C249.461 34.5734 249.63 34.1136 249.63 33.595C249.63 32.9348 249.364 32.4159 248.832 32.0387C248.3 31.6378 247.598 31.3195 246.727 31.0838C245.856 30.8243 244.888 30.5886 243.823 30.3764C242.783 30.1407 241.73 29.8578 240.665 29.5276C239.625 29.1974 238.669 28.773 237.798 28.2543C236.927 27.7357 236.213 27.0518 235.656 26.2029C235.124 25.3541 234.858 24.2695 234.858 22.9491C234.858 21.5343 235.245 20.2493 236.019 19.0939C236.818 17.9149 238.003 16.9836 239.576 16.2998C241.173 15.5924 243.17 15.2387 245.565 15.2387C247.162 15.2387 248.735 15.4274 250.284 15.8046C251.832 16.1583 253.2 16.7006 254.385 17.4316L252.57 21.7819C251.385 21.1217 250.199 20.6383 249.013 20.3318C247.828 20.0017 246.666 19.8366 245.529 19.8366C244.392 19.8366 243.46 19.9663 242.734 20.2257C242.008 20.4851 241.488 20.8269 241.173 21.2514C240.859 21.6522 240.701 22.1238 240.701 22.6661C240.701 23.3027 240.968 23.8215 241.5 24.2223C242.032 24.5996 242.734 24.9061 243.605 25.1419C244.476 25.3776 245.432 25.6136 246.473 25.8493C247.537 26.085 248.59 26.3563 249.63 26.6627C250.695 26.9692 251.663 27.382 252.534 27.9006C253.405 28.4193 254.107 29.1032 254.639 29.952C255.196 30.8008 255.474 31.8738 255.474 33.1705C255.474 34.5618 255.075 35.835 254.276 36.9903C253.478 38.1456 252.28 39.0771 250.683 39.7844C249.11 40.4918 247.114 40.8455 244.694 40.8455ZM264.4 40.4211V20.3318H256.27V15.6632H278.411V20.3318H270.28V40.4211H264.4Z" fill="white"/>
<defs>
<linearGradient id="paint0_linear_2_19" x1="215.185" y1="15.1579" x2="215.185" y2="40.4211" gradientUnits="userSpaceOnUse">
<stop stop-color="white"/>
<stop offset="1" stop-color="white"/>
</linearGradient>
</defs>
</svg>
